/* XPM */
static char *graphic[] = {
/* width height num_colors chars_per_pixel */
"16 16 162 2", 
/* colors */
"   c None",
".  c None",
"X  c #2846E6",
"o  c #2746E6",
"O  c None",
"+  c #2746E6",
"@  c None",
"#  c None",
"$  c None",
"%  c None",
"&  c None",
"*  c #2846E5",
"=  c #31313A",
"-  c None",
";  c #2647E5",
":  c None",
">  c None",
",  c None",
"<  c None",
"1  c None",
"2  c #2946E5",
"3  c #2846E6",
"4  c None",
"5  c None",
"6  c None",
"7  c None",
"8  c #2846E6",
"9  c #2944DF",
"0  c None",
"q  c #2846E7",
"w  c None",
"e  c None",
"r  c None",
"t  c None",
"y  c None",
"u  c None",
"i  c None",
"p  c #30303A",
"a  c #303038",
"s  c None",
"d  c #2747E6",
"f  c #30303A",
"g  c None",
"h  c #30303B",
"j  c #2946E6",
"k  c #293EB0",
"l  c None",
"z  c #2944E3",
"x  c #30303A",
"c  c #2946E6",
"v  c #2646E0",
"b  c None",
"n  c None",
"m  c #303039",
"M  c None",
"N  c #2847E5",
"B  c #303039",
"V  c None",
"C  c None",
"Z  c #2845E3",
"A  c #30303A",
"S  c #2845E1",
"D  c None",
"F  c None",
"G  c #30303A",
"H  c None",
"J  c #303039",
"K  c #30303A",
"L  c None",
"P  c #2847E4",
"I  c None",
"U  c #2847E7",
"Y  c None",
"T  c None",
"R  c None",
"E  c #2646E6",
"W  c #2C3B92",
"Q  c None",
"!  c None",
"~  c #2845E5",
"^  c None",
"/  c None",
"(  c None",
")  c #2845E6",
"_  c #2646E5",
"`  c None",
"'  c None",
"]  c #2F2F3A",
"[  c None",
"{  c None",
"}  c None",
"|  c None",
" . c #2F2F3A",
".. c #2845E4",
"X. c None",
"o. c None",
"O. c #2F2F38",
"+. c None",
"@. c None",
"#. c None",
"$. c None",
"%. c #2F324A",
"&. c #2947E6",
"*. c None",
"=. c #2F2F3A",
"-. c #2947E7",
";. c None",
":. c #2F2F3B",
">. c None",
",. c None",
"<. c #2644E5",
"1. c None",
"2. c #2945E6",
"3. c None",
"4. c None",
"5. c None",
"6. c None",
"7. c None",
"8. c None",
"9. c None",
"0. c #2F2F3B",
"q. c None",
"w. c None",
"e. c None",
"r. c #2945E4",
"t. c None",
"y. c None",
"u. c None",
"i. c None",
"p. c None",
"a. c #2F324E",
"s. c None",
"d. c None",
"f. c None",
"g. c None",
"h. c #2945E5",
"j. c None",
"k. c #2746E5",
"l. c #2647E3",
"z. c None",
"x. c None",
"c. c #2744E5",
"v. c None",
"b. c None",
"n. c None",
"m. c #2E2E3A",
"M. c #2E2E39",
"N. c #31313A",
"B. c None",
"V. c None",
"C. c #2744E6",
"Z. c #2746E6",
"A. c None",
"S. c None",
"D. c #2D377E",
"F. c #2E2E38",
"G. c #2744E6",
"H. c None",
"J. c #2E2E3A",
"K. c #313139",
"L. c #2846E4",
"P. c None",
/* pixels */
"7 ! l + c P [     L J.o.K., g.w ",
"j.; z.L.#.C l.4.s.m.w p.m 4 G s ",
"n.B.P | q I c.y.T M.H J g A 1.. ",
"  S.N E V.j I 8 } +.G e h p 7.  ",
"    0 r.r ) >.b.S a.x 5 O.R     ",
"      8.; *.<.y v W > A &       ",
"      u.b ~ Q * *.z w.n ^       ",
"        < o P.2 U ;.k A.        ",
"      ` $.3 Z.*.3 1 %.u /       ",
"      F k.t.Z.( 9 D.V B e..     ",
"    i.G.r X -.&.Z x.a 6 0.5.    ",
"  S.2.E - C.H.G.i D =.Y N.] M   ",
"n.q.r.t ..@.h.3.,.= 1.K @ O.O . ",
"9.k.{ _ b ~ d.` / f. .' J.# F.% ",
"7 X.@.X ( d $     : :.# f 6.e v.",
"                                "
};
