/* XPM */
static char *graphic[] = {
/* width height num_colors chars_per_pixel */
"64 64 665 2", 
/* colors */
"   c None",
".  c #31313B",
"X  c None",
"o  c #2848E7",
"O  c #313139",
"+  c None",
"@  c #2644E6",
"#  c None",
"$  c None",
"%  c #31313C",
"&  c None",
"*  c None",
"=  c #2843E6",
"-  c #2E386F",
";  c #2945E6",
":  c None",
">  c None",
",  c #31313B",
"<  c #31313C",
"1  c None",
"2  c #2B47E4",
"3  c None",
"4  c #2744E6",
"5  c None",
"6  c None",
"7  c None",
"8  c #2B49E6",
"9  c None",
"0  c #31313B",
"q  c #31313D",
"w  c #2A45E5",
"e  c #2944D6",
"r  c None",
"t  c #2948E5",
"y  c #2B49E7",
"u  c #31313C",
"i  c #31313A",
"p  c #31313B",
"a  c None",
"s  c None",
"d  c None",
"f  c None",
"g  c None",
"h  c None",
"j  c #2744E7",
"k  c None",
"l  c #31313B",
"z  c #313139",
"x  c None",
"c  c #2D2E3A",
"v  c None",
"b  c None",
"n  c #2746E5",
"m  c None",
"M  c None",
"N  c None",
"B  c #2A47E5",
"V  c None",
"C  c #313139",
"Z  c #2B47E5",
"A  c #31313B",
"S  c None",
"D  c None",
"F  c #31313A",
"G  c #2948E5",
"H  c #2E2E37",
"J  c None",
"K  c None",
"L  c None",
"P  c None",
"I  c #2A47E7",
"U  c None",
"Y  c #2948E6",
"T  c None",
"R  c None",
"E  c #313139",
"W  c None",
"Q  c #2846E6",
"!  c #2C3984",
"~  c #31313C",
"^  c #2948E5",
"/  c #31313C",
"(  c None",
")  c #2E2E38",
"_  c #2843D5",
"`  c None",
"'  c #2746E6",
"]  c None",
"[  c None",
"{  c #31313C",
"}  c #2846E3",
"|  c #31313B",
" . c #31313C",
".. c #31313D",
"X. c None",
"o. c None",
"O. c #2E2E38",
"+. c #2E2E3B",
"@. c None",
"#. c #313138",
"$. c None",
"%. c #31313B",
"&. c #31313A",
"*. c #31313B",
"=. c None",
"-. c #2948E5",
";. c #2E2E3B",
":. c #2E2E3A",
">. c None",
",. c None",
"<. c None",
"1. c #2948E7",
"2. c #2846E2",
"3. c #31313B",
"4. c #2948E7",
"5. c None",
"6. c #31313A",
"7. c None",
"8. c #2B47E6",
"9. c #2E2E37",
"0. c None",
"q. c #2846E6",
"w. c #31313B",
"e. c #31313A",
"r. c #313139",
"t. c None",
"y. c None",
"u. c None",
"i. c None",
"p. c None",
"a. c None",
"s. c #2846E4",
"d. c #2E2E39",
"f. c None",
"g. c #2E2E3A",
"h. c #2E2E3B",
"j. c None",
"k. c #2846E3",
"l. c None",
"z. c #313139",
"x. c None",
"c. c None",
"v. c #31313B",
"b. c None",
"n. c None",
"m. c None",
"M. c None",
"N. c #2E2E38",
"B. c #2E2E3B",
"V. c None",
"C. c #313139",
"Z. c #2543E5",
"A. c #2948E6",
"S. c None",
"D. c #31313B",
"F. c None",
"G. c None",
"H. c None",
"J. c None",
"K. c None",
"L. c #2E2E3B",
"P. c None",
"I. c #2E2E3A",
"U. c #2645E3",
"Y. c None",
"T. c None",
"R. c None",
"E. c #31313B",
"W. c None",
"Q. c None",
"!. c #31313A",
"~. c #2E2E3A",
"^. c #2E2E3B",
"/. c None",
"(. c #2E2E3A",
"). c None",
"_. c None",
"`. c #31313B",
"'. c #2543E5",
"]. c #31313A",
"[. c #2647E6",
"{. c None",
"}. c None",
"|. c None",
" X c None",
".X c #2844E3",
"XX c None",
"oX c #2846E3",
"OX c #2E2E3A",
"+X c #2946E4",
"@X c None",
"#X c #31313A",
"$X c None",
"%X c None",
"&X c #2948E6",
"*X c None",
"=X c None",
"-X c None",
";X c None",
":X c None",
">X c #2A48E5",
",X c None",
"<X c #2946E6",
"1X c #30303A",
"2X c #2D3983",
"3X c None",
"4X c None",
"5X c #2846E6",
"6X c #2844E3",
"7X c #2645E4",
"8X c #31313B",
"9X c None",
"0X c None",
"qX c #2846E5",
"wX c #2946E4",
"eX c None",
"rX c None",
"tX c None",
"yX c None",
"uX c None",
"iX c #2747E4",
"pX c #2846E4",
"aX c None",
"sX c #303039",
"dX c #2C3260",
"fX c #2A48E6",
"gX c None",
"hX c None",
"jX c #2946E6",
"kX c None",
"lX c None",
"zX c #2844E5",
"xX c #2846E6",
"cX c #2A48E6",
"vX c #2846E5",
"bX c None",
"nX c None",
"mX c #2647E6",
"MX c #2844E4",
"NX c None",
"BX c #2844E3",
"VX c #2844E4",
"CX c #30303C",
"ZX c #2A48E4",
"AX c #2946E4",
"SX c #2943D1",
"DX c None",
"FX c #303039",
"GX c None",
"HX c #2A48E6",
"JX c #2A48E6",
"KX c #30303C",
"LX c #2846E6",
"PX c None",
"IX c #2844E6",
"UX c None",
"YX c None",
"TX c None",
"RX c #2846E6",
"EX c #2946E5",
"WX c #2C3B8C",
"QX c #30303A",
"!X c None",
"~X c None",
"^X c #2844E4",
"/X c None",
"(X c None",
")X c None",
"_X c #30303A",
"`X c #2A48E6",
"'X c #2846E6",
"]X c #2745E5",
"[X c None",
"{X c None",
"}X c #33333D",
"|X c None",
" o c None",
".o c None",
"Xo c None",
"oo c #2A48E5",
"Oo c None",
"+o c #303039",
"@o c #2946E5",
"#o c #2745E3",
"$o c #2A46E4",
"%o c None",
"&o c #33333D",
"*o c None",
"=o c None",
"-o c None",
";o c None",
":o c #303039",
">o c None",
",o c None",
"<o c #2D2D38",
"1o c #2745E6",
"2o c #2847E5",
"3o c #2844E6",
"4o c None",
"5o c #2944E3",
"6o c None",
"7o c #30303B",
"8o c #30303C",
"9o c None",
"0o c None",
"qo c None",
"wo c #2D2D37",
"eo c None",
"ro c None",
"to c None",
"yo c #2D2D37",
"uo c #303038",
"io c None",
"po c None",
"ao c #2A46E6",
"so c None",
"do c #2643E6",
"fo c #2946E6",
"go c None",
"ho c #33333D",
"jo c None",
"ko c #2946E5",
"lo c #2B48E5",
"zo c None",
"xo c None",
"co c #2A46E7",
"vo c None",
"bo c #303037",
"no c #2847E5",
"mo c None",
"Mo c #2944E4",
"No c None",
"Bo c #2A3DB3",
"Vo c #2847E4",
"Co c None",
"Zo c None",
"Ao c None",
"So c None",
"Do c #2944E6",
"Fo c #303037",
"Go c #2847E6",
"Ho c None",
"Jo c #2643E6",
"Ko c None",
"Lo c #30303A",
"Po c #303037",
"Io c None",
"Uo c #303039",
"Yo c #2747E6",
"To c None",
"Ro c None",
"Eo c #2B48E5",
"Wo c None",
"Qo c #2A46E5",
"!o c #303039",
"~o c None",
"^o c #303037",
"/o c None",
"(o c #2546E3",
")o c #303038",
"_o c None",
"`o c None",
"'o c None",
"]o c #2947E4",
"[o c None",
"{o c None",
"}o c None",
"|o c None",
" O c #2D2D3A",
".O c None",
"XO c #2944E6",
"oO c None",
"OO c #2946E6",
"+O c #30303B",
"@O c None",
"#O c None",
"$O c #30303B",
"%O c #2944E5",
"&O c #2847E5",
"*O c None",
"=O c None",
"-O c None",
";O c None",
":O c #2546E3",
">O c None",
",O c #2D2D3A",
"<O c None",
"1O c None",
"2O c None",
"3O c #2847E3",
"4O c #303038",
"5O c None",
"6O c #2D2D3A",
"7O c None",
"8O c None",
"9O c #30303B",
"0O c None",
"qO c None",
"wO c #2847E7",
"eO c #303144",
"rO c #30303A",
"tO c None",
"yO c None",
"uO c #30303A",
"iO c None",
"pO c None",
"aO c #2745E7",
"sO c #2D2D3A",
"dO c None",
"fO c #283FAB",
"gO c #30303A",
"hO c #2A46E6",
"jO c None",
"kO c #30303A",
"lO c #303039",
"zO c None",
"xO c #323239",
"cO c #2847E5",
"vO c None",
"bO c None",
"nO c #2947E5",
"mO c None",
"MO c #2B48E7",
"NO c #2A46E7",
"BO c None",
"VO c None",
"CO c None",
"ZO c #2947E6",
"AO c None",
"SO c None",
"DO c None",
"FO c #2F2F3A",
"GO c #32323B",
"HO c #2546E6",
"JO c None",
"KO c None",
"LO c None",
"PO c #30303B",
"IO c #2845E4",
"UO c #2546E5",
"YO c None",
"TO c None",
"RO c None",
"EO c None",
"WO c None",
"QO c None",
"!O c #32323B",
"~O c None",
"^O c None",
"/O c None",
"(O c #30303A",
")O c None",
"_O c None",
"`O c None",
"'O c None",
"]O c #32323B",
"[O c None",
"{O c None",
"}O c #2947E6",
"|O c None",
" + c #32323C",
".+ c None",
"X+ c None",
"o+ c None",
"O+ c #32323B",
"++ c None",
"@+ c #30303A",
"#+ c #2847E6",
"$+ c #2845E0",
"%+ c None",
"&+ c #2947E5",
"*+ c None",
"=+ c #30303A",
"-+ c None",
";+ c #2947E4",
":+ c #2947E5",
">+ c #30303A",
",+ c #32323B",
"<+ c #2947E2",
"1+ c #2F2F38",
"2+ c None",
"3+ c None",
"4+ c #32323C",
"5+ c None",
"6+ c #2947E6",
"7+ c None",
"8+ c #2F3974",
"9+ c None",
"0+ c #2847E6",
"q+ c None",
"w+ c None",
"e+ c #32323A",
"r+ c #32323B",
"t+ c #2F2F3B",
"y+ c #2F2F3A",
"u+ c #2845E5",
"i+ c None",
"p+ c None",
"a+ c None",
"s+ c #2544E5",
"d+ c None",
"f+ c None",
"g+ c None",
"h+ c #2646E3",
"j+ c None",
"k+ c None",
"l+ c None",
"z+ c #2F2F3A",
"x+ c #2F2F3B",
"c+ c #32323B",
"v+ c #2947E7",
"b+ c #2C3455",
"n+ c #32323C",
"m+ c None",
"M+ c #2947E6",
"N+ c None",
"B+ c None",
"V+ c #2F2F39",
"C+ c #2947E5",
"Z+ c #2646E5",
"A+ c #2845E5",
"S+ c None",
"D+ c None",
"F+ c #32323C",
"G+ c #2644E4",
"H+ c #2945E4",
"J+ c #32323D",
"K+ c #2544E6",
"L+ c None",
"P+ c None",
"I+ c #2646E3",
"U+ c #2845E2",
"Y+ c None",
"T+ c #2947E7",
"R+ c #2947E7",
"E+ c #2646E3",
"W+ c #32323C",
"Q+ c None",
"!+ c #30303C",
"~+ c #2B3EA9",
"^+ c #32323B",
"/+ c #32323B",
"(+ c None",
")+ c None",
"_+ c #32323B",
"`+ c #32323C",
"'+ c None",
"]+ c #2947E6",
"[+ c None",
"{+ c #2646E3",
"}+ c #2947E5",
"|+ c None",
" @ c #2646E6",
".@ c #2F2F3B",
"X@ c #2A47E5",
"o@ c None",
"O@ c None",
"+@ c #2947E7",
"@@ c None",
"#@ c #2F2F3A",
"$@ c None",
"%@ c None",
"&@ c None",
"*@ c None",
"=@ c #2947E6",
"-@ c None",
";@ c None",
":@ c #2646E6",
">@ c None",
",@ c None",
"<@ c #2947E5",
"1@ c None",
"2@ c None",
"3@ c #2843E3",
"4@ c None",
"5@ c #2A47E5",
"6@ c None",
"7@ c None",
"8@ c None",
"9@ c #2F2F37",
"0@ c #2947E3",
"q@ c #2947E4",
"w@ c None",
"e@ c #2646E4",
"r@ c #2746E5",
"t@ c None",
"y@ c #2F2F3A",
"u@ c None",
"i@ c None",
"p@ c None",
"a@ c None",
"s@ c None",
"d@ c None",
"f@ c None",
"g@ c None",
"h@ c None",
"j@ c None",
"k@ c #2947E6",
"l@ c None",
"z@ c #2746E5",
"x@ c None",
"c@ c #2A47E5",
"v@ c #2843E3",
"b@ c #2843E3",
"n@ c #2945E5",
"m@ c None",
"M@ c None",
"N@ c None",
"B@ c #2646E5",
"V@ c #2947E4",
"C@ c None",
"Z@ c #2848E5",
"A@ c None",
"S@ c None",
"D@ c #2A47E6",
"F@ c #2947E6",
"G@ c None",
"H@ c None",
"J@ c #2F2F3B",
"K@ c #2F2F3A",
"L@ c None",
"P@ c #2945E5",
"I@ c None",
"U@ c None",
"Y@ c #2644E5",
"T@ c None",
"R@ c #2843E4",
"E@ c #2A47E5",
"W@ c None",
"Q@ c None",
"!@ c None",
"~@ c None",
"^@ c None",
"/@ c None",
"(@ c None",
")@ c #31313B",
"_@ c None",
"`@ c None",
"'@ c None",
"]@ c #2947E7",
"[@ c None",
"{@ c #2947E6",
"}@ c None",
"|@ c #2947E7",
" # c #2843E5",
".# c None",
"X# c None",
"o# c #2842C3",
"O# c #2746E5",
"+# c #2F3247",
"@# c None",
"## c None",
"$# c #2945E5",
"%# c None",
"&# c None",
"*# c #2A45E4",
"=# c None",
"-# c #2644E6",
";# c None",
":# c None",
"># c #313139",
",# c None",
"<# c None",
"1# c None",
"2# c None",
/* pixels */
"'OG+3O3O6+++    > 8 #o3O3O3O3O3O3O3O3O3O3O3Oc@,.                                %XW+h.h.r.&o##    t.| h.h.h._+^@    J./ h.h.#.g ",
"& Do'X'XLXy.P+    @@[.'X'X'X'X'X'X'X'X'X'X'X@ -o3+                            zo*+9@>+>+9OJ     bX]Owo>+>+~.po+   hX_@4O>+>+V+Io",
"S@* do'X'X:@Xo    3+|OI+'X'X'XR@3o= = 3oBX'X'Xs.P.                            T !o>+>+Fo0O#   + l.)o>+>+9.xOj.    Ao^.>+>+I.V.+ ",
"  /@8 {+'XpX&X3     |XaoBX'X'XA+eoHoHoI@ooBX'XoXC+N+                        $ C =+>+@+1X>@    W@#@>+>+>++.O@    <.&.>+>+wo4+6   ",
"    v }+'X'XUOy b     K Do'X'X= S+~o    U $#'X'X'.iOs                     i+ +sO>+>+;.-+    [O`+@+>+>+kOTo+   ##. wo>+>+w.yX    ",
"      No5X'X'X.X_oS@  S@* do'X'X%OoO    S@X.n 'X'X7Xh                   + Cod.>+>+d.`O+   zouX,O>+>+(O~Ovo  + ,#bo>+>+#X|+      ",
"      ~o9  #'X'XcOGX    /@8 {+'X'X4 0o    a.4.e@'X'Xq.a@                ` e.>+>+sOGOi+    [ Uo>+>+=+z u.    )XE.>+>+^o5OhX      ",
"        PXH+oX'XR@c@9+    m }+'X'Xe@Eo6@    a@q.'X'Xv@Z >             tO0 9.>+>+C ro    M %.=+>+>+8X~X    DXc+@+>+=+t+7.        ",
"          &@fo'X'X6XaX3+    No5X'X'Xn X.S@    h 7X'X'Xn f@S@        # 7@Fo>+>+!o{.    vovO(O>+>+6O`ozo  Oo#OlO>+>+z.nX          ",
"          3+[o(o'X'X0+m.    '+9  #'X'X; U     s Zo'.'X'X; /X        s@:.>+>+9@KOzo  + gogO>+>+@+A So    1@J@>+>+FoyO#           ",
"            |X6+b@'XoXoo%#    f+;+oX'XBX:+,.    N+C+oX'XBX:+,.    + eXwo>+=+sX%X    `@v.>+>+>+$O(     BOFX=+>+@+1X>@            ",
"              :XF@'X'XRXT.P+    g+fo'X'XJoqOmO    P.s.'X'XJok+3+    -+;.>+:.*o    j.,+yo>+>+ O'@+   voJO(O>+>+D.-+              ",
"              S@p+HO'X'XzX5.    3+B+(o'X'Xs.P.    3+)OJo'X'Xs.Q@    + [@C.T@#   + M.~.>+>+9.u j.    $@K@>+>+d.'o+               ",
"                U@Y :O'X'Xz@.#    |X6+b@'XoXC+N+    ,.R+BX'XoX]+>O    6 $XKo    ( #.>+>+>+v.`@    t.+o>+>+sOGON@                ",
"                  w+&O'X'XUOY U@    &#F@'X'X'.Zos     VO@o'X'X'./os           }. .=+>+>+gOS.+   bXJ+yo>+=+C $                   ",
"                    *XIX'X'XOO{oS@  S@{oHO'X'Xh+X#+   S@/.' 'X'X7X2@        zo;XOX>+>+(O9Xvo  + pO)o>+>+) *@                    ",
"                    '+Q+RX'X'X]@&#    /@Y B@'X'X<+@.    a.D@v@'X'X4 0o      .OL.>+>+=+%.M     >.+O>+>+OXdOzo                    ",
"                      f+wOoX'Xb@v+|X    .#hO'X'Xv@D@}o    @.q.'X'Xe@MO6@  jo7o=+>+>+Uo[     l+e+@+>+=+i }.                      ",
"                        8@XO'X'X(o.+3+    N IX'X'X' @OS@    X#7X'X'Xn X.Woq sO>+>+,OuXzo  zo7O,O>+>+r.CO                        ",
"                        3+0.VX'X'XZ+X     '+Q+RX'X'X@oF.    s Zo'.'X'X#+X+<o>+>+@+e+[O    [ ].>+>+~.M.+                         ",
"                          |Xo b@'XoXH+PX    SOnooX'X^X$o<#    N+C+oX'XBXfOeO>+>+Lo>.    u.*.=+>+9.,+j.                          ",
"                            R AX'X'X #x ~o    8@XO'X'X@ ;o$.    P 0@'X'X$+2X!+)opO+   voEO(O>+>+v.kX                            ",
"                            S@W.xX'X'XkoNo    3+L VX'X'XV@>o    mOo.Jo'X'XSXdXCXbX    gokO>+>+gOgo+                             ",
"                              U@fXUO'X'Xn@mo    9+Z@R@'XoXr@rX    ,.ZX^X'X'Xo#b.    + 0XsO>+(OvOvo                              ",
"                                .#1o'X'X:O>X/@    )+AX'X'XK+%@t@    F.@o'X'X'.u@~o    $ C =+%.M                                 ",
"                                  L@zX'X'XmXTOS@  S@,@xX'X'Xk.[+S@  S@@O' 'X'X7XWO      *@&.i@                                  ",
"                                  P+T.RX'X'XO#m@    U@X@UO'X'XP@a+    UXD@v@'X'X4 0o    zoA@zo                                  ",
"                                    %#oooX'XBX2o:     m+]X'X'Xv@JX=o    3Xk@'X'Xe@1.6@                                          ",
"                                      m.{@'X'XE+zO3+    p@Yo'X'XqX oS@  + S h+'X'Xn a S@                                        ",
"                                      3+YXRX'X'XA+D     P+%oRX'X'XG+1#    QO%@K+'X'X_ [X                                        ",
"                                      P+|.= 'X'XoXQ r     %#w oX'X^XM+g@    ).r@oX$+! ..>@                                      ",
"                                      G@5o'X'X'X'X'.S+~o    m.3O'X'XLXDOP+    j+5o~+eOFogX#                                     ",
"                                    ).NOoX'XoXBX'X'X7XWO    OobOMX'X'XU.(+    $.c.b+>+>+y@s@                                    ",
"                                  QO%@K+'X'X#+E@{+'X'X4 0o    9+c@R@'XoX+X3     So{ @+>+=+^+}.                                  ",
"                                + _.h+'X'XdoRomo&O'X'Xe@nOa.    LOcO'X'XUOt b     ( #.>+>+OX}@zo                                ",
"                                o+<@'X'X{+cX/@  YO5X'X'Xn f@S@  S@p+qX'X'X.X2#+   + *O(.>+>+].[                                 ",
"                              > HXv@'X'Xn@v     : Qo'X'XoXZX/@  S@=XVX'X'Xe - kX    Ko0 N.>+=+_XBO                              ",
"                            S@@O' 'X'XkoNo    S@x@qX'X'XYop@    F.@o'X'XU+WXc , bX    -+;.>+>+(O%+hX                            ",
"                            F.@o'X'X= x ~o    ] q@'X'XvX%oP+  ,.R+BX'XoXBo+#>+ OpO+   + @#I.>+>+O.Ao                            ",
"                          ,.*#^X'XoXjXY+    g@Go^X'XoXw %#  d@o.Jo'X'XZ+8+4O>+>+#@W@    ##!Owo>+>+E xo                          ",
"                        $.o.@ 'X'X @f.    P+^OLX'X'X0+m.    P.s.'X'X(o=.i.QX=+>+@+O DX    <.&.>+>+wo< ##                        ",
"                        P.s.'X'X(o|o3+    <OMo'X'X6XbOG.  N+C+oX'Xb@6+|X  {XB.>+>+lO#OOo    Q.K@>+>+I.qo+                       ",
"                      N+C+oX'XBX`X|X    ).I oX'XR@c@9+  s Zos+'X'XF@:X    !X#OlO>+>+B.{X    vo:#(O>+>+D.A@                      ",
"                    QOd '.'X'XDow@    t@,XK+'X'XcOH@    h 7X'X'XOO{OS@      [O~ @+>+=+8o7.    M *.=+>+9.KXj.                    ",
"                    n.7X'X'XZ.o@S@  S@1 k.'X'X2.(@S@  a@q.'X'X{+ZO/@          >.+O>+>+4O/OhX    ~Xg.>+>+(.M.+                   ",
"                  0oj 'X'X:O]o/@    4oEX'X'XUOlob   a.Z v@'X'X}+,o      zo+   + '@~.>+>+uO X    zo;XOX>+>+`.d+                  ",
"                a.4.e@'X'X}+,o    =o}Ov@'XoX=@@X  S@f@' 'X'X5X-@      N@uXi@    j.,+9.>+>+z+ro    }./+=+>+@+/ [O                ",
"              S@X.n 'X'X5XYO    S@=O3@'X'X:@W     U ; 'X'X #so'+    + ~@kOy+jo    O@1+>+>+sOGOi+    RO9O>+>+,O-OOo              ",
"              U $#'X'XRXso'+    to#o'X'XLXp.P+  4XT+BX'XoXH+f+      `@1+>+sO% i+  + R.d.>+>+d.Co+   # yOPo>+>+B.{X              ",
"            : -.BX'XoX+@f+    ++A.oX'XoX<X.o  3+k+Jo'X'Xfo&@        f H >+>+d.h@+   i+GOsO>+>+:oA@    >@>#@+>+=+8o7.            ",
"          3+x.E+'X'Xfog+    P+y.LX'X'XaOto    Q@s.'X'X(o.+3+        voJO4O>+>+V+Io    roz+>+>+9.n+j.    j@E.>+>+4O1OhX          ",
"          D A+'X'X(o=.3+    Xo:@'X'X3@2+Oo  L+]+oX'XBX8.|X            BO| =+>+@+p DX    D+uO>+>+~.M.+   + !@)o>+>+rOK.          ",
"        7 Q oX'Xb@6+|X    3 &XoX'Xv@^ AO  s 9o'.'X'X|@:X                4@!.>+>+lOjO!X  hX_O4O>+>+`.M@    bXO+yo>+=+C $         ",
"      ~oH.= 'X'XF@:X    b y UO'X'XEX4o    2@7X'X'Xdo{OS@                # yOFo>+>+uo8O    ;@F =+>+@+e+[O    q+6.>+>+sO}Xvo      ",
"      (X%O'X'XHO2OS@  S@_o.X'X'X.XY.S@  0o4 'X'X:O2 /@                    >@r+N.>+=+%.l@    TXJ@>+>+,OtX!X  + ;OkO>+>+kO;O+     ",
"    XXiX'X'X{+Y /@    LOB 'X'XUO,Xt@  a.G e@'X'X}+m                         ` :o>+>+(OEOvo  !X=#,O>+>+uo8O    vo)@sO>+>+v.`@    ",
"  io5@e@'X'X&O5     9+cov@'XoXVo6o  S@X.-#'X'X5XNo                          + TokO>+>+PO~@+   [OFO@+>+=+x+BO    $ 3.=+>+9.CXbX  ",
"S@C@Y@'X'XIX*X    G.bOMX'X'XU.(+    U u+'X'X #so'+                            vo5+(O>+>+e.`     d+$O>+>+4O-XhX    k rO>+>+)o!@+ ",
"m@O#'X'XRX7+'+    ;#} 'X'XLXDOP+  4X&+BX'XoXH+PX                                M _X=+>+N.F+>@  + M.~.>+>+^.V     hX1O9@>+>+E.j@",
"'Oq@#o#o2oSO    U@y q@#o#oZ@g@    NXIOG+G+wX&@                                    TX.@#.#.:oQ.    j.. #.r.#.hoDX    7.l r.r.$OlX",
"                                                                                                                                ",
"                                                                                                                                ",
"                                                                                                                                ",
"                                                                                                                                "
};
