/* XPM */
static char *graphic[] = {
/* width height num_colors chars_per_pixel */
"32 32 418 2", 
/* colors */
"   c None",
".  c #31313B",
"X  c None",
"o  c #2846E6",
"O  c None",
"+  c None",
"@  c #2746E6",
"#  c #2843E6",
"$  c None",
"%  c #2746E6",
"&  c None",
"*  c #313138",
"=  c #2E2E39",
"-  c None",
";  c #2545E3",
":  c None",
">  c None",
",  c None",
"<  c None",
"1  c #2744E6",
"2  c None",
"3  c None",
"4  c None",
"5  c #31313B",
"6  c None",
"7  c None",
"8  c None",
"9  c None",
"0  c None",
"q  c #31313B",
"w  c #31313A",
"e  c None",
"r  c #2E2E38",
"t  c None",
"y  c None",
"u  c None",
"i  c None",
"p  c None",
"a  c None",
"s  c #31313B",
"d  c #31313A",
"f  c #2846E5",
"g  c None",
"h  c #2746E5",
"j  c None",
"k  c #313139",
"l  c None",
"z  c None",
"x  c None",
"c  c None",
"v  c #2846E6",
"b  c #2946E5",
"n  c #2E2E38",
"m  c None",
"M  c None",
"N  c None",
"B  c None",
"V  c None",
"C  c None",
"Z  c #2846E4",
"A  c #2846E3",
"S  c None",
"D  c None",
"F  c #2E2E38",
"G  c None",
"H  c None",
"J  c None",
"K  c None",
"L  c #31313A",
"P  c None",
"I  c #2E2E3A",
"U  c #2F355E",
"Y  c #2846E3",
"T  c #2E2E3B",
"R  c None",
"E  c None",
"W  c None",
"Q  c None",
"!  c #2E2E37",
"~  c None",
"^  c #2E2E3A",
"/  c #2846E7",
"(  c #2846E6",
")  c None",
"_  c None",
"`  c #2946E5",
"'  c #31313A",
"]  c #2946E5",
"[  c None",
"{  c None",
"}  c #313139",
"|  c None",
" . c None",
".. c #2844E5",
"X. c #2846E5",
"o. c #2543E5",
"O. c None",
"+. c #2846E4",
"@. c None",
"#. c #2D2E3E",
"$. c None",
"%. c None",
"&. c #2846E6",
"*. c #303039",
"=. c #30303A",
"-. c None",
";. c None",
":. c None",
">. c #2946E5",
",. c None",
"<. c #2844E5",
"1. c #2944E4",
"2. c None",
"3. c #2844E3",
"4. c #2645E3",
"5. c #2E2E3A",
"6. c #2946E7",
"7. c None",
"8. c #2F3459",
"9. c #2E2E3A",
"0. c #2844E6",
"q. c #2543E6",
"w. c None",
"e. c None",
"r. c #30303A",
"t. c #2543E5",
"y. c #2946E7",
"u. c None",
"i. c #2745E4",
"p. c #2844E3",
"a. c #2647E6",
"s. c None",
"d. c None",
"f. c #2E2E3A",
"g. c None",
"h. c #2846E7",
"j. c None",
"k. c #2946E6",
"l. c #30303B",
"z. c None",
"x. c #30303A",
"c. c #30303A",
"v. c #2844E3",
"b. c #2846E6",
"n. c #2747E6",
"m. c #2846E5",
"M. c #2543E6",
"N. c #2645E4",
"B. c None",
"V. c #2944E3",
"C. c #30303A",
"Z. c None",
"A. c None",
"S. c #2846E6",
"D. c #2844E6",
"F. c #303039",
"G. c None",
"H. c None",
"J. c #2942C6",
"K. c #2844E4",
"L. c None",
"P. c #2847E5",
"I. c #2643E3",
"U. c #2946E6",
"Y. c None",
"T. c None",
"R. c #2846E6",
"E. c None",
"W. c None",
"Q. c #2846E6",
"!. c None",
"~. c #2847E5",
"^. c #303037",
"/. c #30303A",
"(. c #30303B",
"). c #2946E4",
"_. c None",
"`. c None",
"'. c #2745E7",
"]. c #30303B",
"[. c #30303A",
"{. c #2846E6",
"}. c #2D2D37",
"|. c #2D2D3A",
" X c None",
".X c None",
"XX c #303037",
"oX c None",
"OX c None",
"+X c #2847E5",
"@X c None",
"#X c None",
"$X c None",
"%X c #303039",
"&X c None",
"*X c None",
"=X c #303038",
"-X c None",
";X c #2847E5",
":X c None",
">X c #2745E6",
",X c #2643E5",
"<X c None",
"1X c None",
"2X c #2E3667",
"3X c #30303B",
"4X c #30303A",
"5X c None",
"6X c None",
"7X c None",
"8X c #2D2D37",
"9X c None",
"0X c #303038",
"qX c None",
"wX c #30303B",
"eX c None",
"rX c #30303A",
"tX c #30303B",
"yX c #2946E6",
"uX c None",
"iX c #2D2D39",
"pX c None",
"aX c None",
"sX c #2847E5",
"dX c #30303A",
"fX c #30303B",
"gX c None",
"hX c #30303A",
"jX c #2847E4",
"kX c #303037",
"lX c None",
"zX c None",
"xX c None",
"cX c None",
"vX c #303037",
"bX c #2847E6",
"nX c #2944E6",
"mX c #2643E6",
"MX c None",
"NX c #30303A",
"BX c None",
"VX c #2B3872",
"CX c #2546E2",
"ZX c None",
"AX c None",
"SX c None",
"DX c #303038",
"FX c #2546E3",
"GX c None",
"HX c None",
"JX c #303038",
"KX c #2947E5",
"LX c #2845E5",
"PX c #2546E6",
"IX c None",
"UX c #30303A",
"YX c None",
"TX c #2847E5",
"RX c #2D2D3A",
"EX c None",
"WX c #2D2D3A",
"QX c #303038",
"!X c #30303B",
"~X c None",
"^X c #30303A",
"/X c None",
"(X c #2F3558",
")X c None",
"_X c #30303A",
"`X c None",
"'X c #2D2D3A",
"]X c None",
"[X c None",
"{X c None",
"}X c #30303A",
"|X c #303039",
" o c None",
".o c None",
"Xo c #2847E5",
"oo c None",
"Oo c #2947E5",
"+o c None",
"@o c None",
"#o c #30303A",
"$o c None",
"%o c None",
"&o c None",
"*o c None",
"=o c #2743E5",
"-o c #2947E6",
";o c #2947E6",
":o c #2845E6",
">o c #2F2F3B",
",o c #2F2F3A",
"<o c None",
"1o c #2847E6",
"2o c #2546E6",
"3o c None",
"4o c #2845E4",
"5o c None",
"6o c #30303A",
"7o c None",
"8o c #2743E6",
"9o c None",
"0o c None",
"qo c None",
"wo c #2947E4",
"eo c None",
"ro c None",
"to c None",
"yo c #2947E6",
"uo c #2847E6",
"io c None",
"po c None",
"ao c #30303B",
"so c #2746E6",
"do c #2845E5",
"fo c None",
"go c None",
"ho c None",
"jo c None",
"ko c None",
"lo c None",
"zo c None",
"xo c #2F2F37",
"co c None",
"vo c None",
"bo c None",
"no c #2F2F3B",
"mo c None",
"Mo c #2F2F3A",
"No c None",
"Bo c None",
"Vo c None",
"Co c None",
"Zo c None",
"Ao c #2F2F39",
"So c #2646E5",
"Do c None",
"Fo c #2F2F3A",
"Go c #2845E5",
"Ho c #2544E6",
"Jo c #2644E4",
"Ko c #2945E4",
"Lo c None",
"Po c None",
"Io c #2646E4",
"Uo c None",
"Yo c #2947E7",
"To c #2947E7",
"Ro c None",
"Eo c #2646E3",
"Wo c #2C3B86",
"Qo c None",
"!o c #293FC1",
"~o c #2646E6",
"^o c None",
"/o c None",
"(o c None",
")o c #2C3995",
"_o c None",
"`o c None",
"'o c None",
"]o c None",
"[o c None",
"{o c #2646E6",
"}o c #2947E6",
"|o c #2843E3",
" O c None",
".O c None",
"XO c None",
"oO c #2945E5",
"OO c None",
"+O c #2F2F37",
"@O c None",
"#O c #2746E5",
"$O c None",
"%O c #2F2F3A",
"&O c #2746E4",
"*O c None",
"=O c None",
"-O c #2843E6",
";O c #2947E6",
":O c #2843E4",
">O c None",
",O c None",
"<O c #31313A",
"1O c None",
"2O c #2947E6",
"3O c None",
"4O c #2848E6",
"5O c #2F2F3A",
"6O c #2945E5",
"7O c None",
"8O c None",
"9O c None",
"0O c #31313A",
"qO c #2843E4",
"wO c None",
"eO c #2844D9",
"rO c None",
"tO c #2746E7",
"yO c #31313B",
"uO c None",
"iO c #31313A",
"pO c #2744E6",
"aO c #31313B",
"sO c #2746E5",
"dO c None",
"fO c #2843E5",
"gO c None",
"hO c None",
"jO c None",
"kO c #31313A",
"lO c #2644E6",
"zO c #2E2E37",
"xO c #2846E5",
"cO c None",
/* pixels */
"t uo3O7O7o;O~o~o~o~oyX/Xg             foyO!X<Ofo.o' hXbo2 =.!XHX",
"OOsOS.]og j.Hov.sXTo4.p.=O,O        X ro5.NXgozX3X8X>o[o-X#odX:.",
",O8Oq.Z z w.jXR.$o7OrO|o<._o        :.AoDXko2 =.'XrXYX3 ^.5.> X ",
"  uO;o# 1..X@X; {o| ioy.Ho] *o    [oq 6okOO.lXiXiXlX9oC.6o0O2   ",
"    P TXv.%oy G.mX/ <X_o<.|om OXX N vX4XpoB |.'X=.H.qXJXwXB.    ",
"      ~Xb.PXE lobX# b 7O=Op.A hOpXiOF u [o>o8X= zXE.xo^X`X      ",
"      Qox R.wojoV Jop.=O7Ob t.k.qoeoJ foM vXn p 6 nof.wOZ.      ",
"        joKoR., y ]Xm.<._o .U.R.uXPoX 5oXXWX_ 2 ;.+Od g.        ",
"          xXSob.co: o M.+Xio1X=o{oc g.d ! ].u.bo5OXX5o          ",
"          toW K.TXP 4 1o|orOy aXR.V.(X+OI {X[ fX9.@OO           ",
"            .Xyot.;o9Xe.Ioh.dOoXn.CX)o#.&XO.l.6o5 MX            ",
"              z.&.q.8Og Y.# LXoXdOA eOWo)X[X}XrXL.              ",
"              ,Oho2o@ K Bo#OR.^oy rO:OXooog.x.7 X               ",
"                7O-o# ;X/oG +.8o0oio+XHo` #XmoZ.                ",
"                  P 0.FX- y i mX}oNoT.4o|o_.X                   ",
"                  *O<.{.a.8 R '.# P.uO-.J.U go                  ",
"                .O6.M.-OQ.:oUo:XX.S.*XuO2Xao,o9o                ",
"              ,OH lOnX7.pOfO Oy { FXZ (o+ Mo|XIXOX              ",
"              D doq.8O$OsoqOYo#X~ mX!o8.MXA._Xxo X              ",
"            & >.M.;o9X9ON.D.BXdO-OI.VX9.VogXSX+O/.Ro            ",
"          tos.FX..P 6X( v.~ jon.# `oQ }.} !.2.* +O$.Z.          ",
"           oGob.~X.OOoM.xOR aXR.tOw.gXaOQXw moE.0X^Xa           ",
"        < v Q.x y ) h Z z 1X8o3.$XX gXzX= RXGXgXXO|Xk zX        ",
"      ZX,.Q.Kojo:XX.S.CoNoU.mXZo+oeo@.g.a ^XUXS 9o(.QXaOgX      ",
"      AXo.yXxXR i.t.P./ob # bXcOX 1O|XwO2 wO+O[.j go=X}.DoX     ",
"    d.&OK.W ZXcXEo>XgO=Op.).V      X^ _X0 RoF.QXHX>OeX9.zOpo    ",
"  9X~.t.yo.X7.Y 8o$ _oXom.]X,O    O 'ovXL 9 @o^ 5O7XMX5 6or.H.  ",
",O%.,X2OjOLooOR.^oR y.M.4Oe         [oc.6o*.MXl |XFo9 B T kXC X ",
"zo% 2ohog /X# LXW.rO|o6O4             B |.kX5X9os 6o. H.vo5.r 3 ",
"t h.KXuOBX( 1 EXd.f @ <oX             X Do^./.B.&otX%X`.2 aO%O3o",
"                                                                ",
"                                                                "
};
